<svg xmlns="http://www.w3.org/2000/svg" width="375" viewBox="0 0 375 375" height="375" version="1.0"><g fill="#FFF"><g><g><path d="M 213.746094 -152.09375 C 208.425781 -164.925781 200.601562 -176.503906 191.214844 -186.207031 C 171.8125 -206.234375 145.210938 -218.441406 115.480469 -218.441406 C 85.75 -218.441406 59.148438 -206.234375 39.746094 -186.207031 C 20.65625 -166.492188 8.449219 -139.265625 8.449219 -109.21875 C 8.449219 -78.863281 20.65625 -51.636719 39.746094 -31.921875 C 59.148438 -11.890625 85.75 0.3125 115.480469 0.3125 C 145.210938 0.3125 171.8125 -11.890625 191.214844 -31.921875 C 200.601562 -41.621094 208.425781 -53.203125 213.746094 -66.03125 L 208.425781 -66.03125 C 203.417969 -54.453125 196.222656 -44.4375 187.773438 -35.675781 C 169.308594 -16.585938 143.644531 -4.695312 115.480469 -4.695312 C 87.3125 -4.695312 61.652344 -16.585938 43.1875 -35.675781 C 24.722656 -54.453125 13.144531 -80.429688 13.144531 -109.21875 C 13.144531 -137.699219 24.722656 -163.675781 43.1875 -182.765625 C 61.652344 -201.855469 87.3125 -213.433594 115.480469 -213.433594 C 143.644531 -213.433594 169.308594 -201.855469 187.773438 -182.765625 C 196.222656 -174 203.417969 -163.675781 208.425781 -152.09375 Z M 213.746094 -152.09375" transform="translate(76.406 299.042)"/></g></g></g><g fill="#FFF"><g><g><path d="M 172.230469 -83.839844 C 172.230469 -61.082031 163.128906 -40.722656 148.515625 -25.871094 C 133.664062 -10.78125 113.0625 -1.4375 90.546875 -1.4375 C 68.03125 -1.4375 47.667969 -10.78125 32.816406 -25.871094 C 18.207031 -40.722656 8.863281 -61.082031 8.863281 -83.839844 C 8.863281 -106.597656 18.207031 -126.957031 32.816406 -141.808594 C 47.667969 -156.898438 68.03125 -166.242188 90.546875 -166.242188 C 113.0625 -166.242188 133.664062 -156.898438 148.515625 -141.808594 C 163.128906 -126.957031 172.230469 -106.597656 172.230469 -83.839844 Z M 5.03125 -83.839844 C 5.03125 -60.125 14.851562 -38.566406 30.183594 -22.996094 C 45.511719 -7.1875 67.070312 2.394531 90.546875 2.394531 C 114.261719 2.394531 135.582031 -7.1875 151.152344 -22.996094 C 166.480469 -38.566406 176.304688 -60.125 176.304688 -83.839844 C 176.304688 -107.554688 166.480469 -129.113281 151.152344 -144.683594 C 135.582031 -160.492188 114.261719 -170.074219 90.546875 -170.074219 C 67.070312 -170.074219 45.511719 -160.492188 30.183594 -144.683594 C 14.851562 -129.113281 5.03125 -107.554688 5.03125 -83.839844 Z M 5.03125 -83.839844" transform="translate(102.109 273.009)"/></g></g></g><g fill="#FFF"><g><g><path d="M 10.644531 -2.617188 C 10.644531 -40.492188 10.644531 -81.507812 10.644531 -119.378906 L 49.21875 -119.378906 C 125.839844 -119.378906 125.839844 -2.617188 49.21875 -2.617188 Z M 8.027344 -122 C 8.027344 -81.332031 8.027344 -40.667969 8.027344 0 L 49.21875 0 C 129.328125 0 129.328125 -122 49.21875 -122 Z M 8.027344 -122" transform="translate(145.224 248.223)"/></g></g></g><g fill="#FFF"><g><g><path d="M 8.003906 -43.453125 L 54 -43.453125 L 54 -45.488281 L 8.003906 -45.488281 L 8.003906 -86.90625 L 55.015625 -86.90625 L 55.015625 -88.8125 L 5.972656 -88.8125 L 5.972656 0 L 55.269531 0 L 55.269531 -1.90625 L 8.003906 -1.90625 Z M 8.003906 -43.453125" transform="translate(163.61 228.195)"/></g></g></g></svg>