<svg xmlns="http://www.w3.org/2000/svg" width="375" viewBox="0 0 375 375" height="375" version="1.0"><defs><clipPath id="a"><path d="M 114.054688 131 L 188 131 L 188 195.996094 L 114.054688 195.996094 Z M 114.054688 131"/></clipPath><clipPath id="b"><path d="M 187 97 L 261.054688 97 L 261.054688 162 L 187 162 Z M 187 97"/></clipPath></defs><g clip-path="url(#a)"><path fill="#FFF" d="M 163.554688 177.03125 L 163.554688 185.988281 L 123.03125 167.136719 L 123.03125 159.867188 L 163.554688 141.015625 L 163.554688 149.976562 L 132.910156 163.417969 L 132.910156 163.585938 Z M 187.617188 131.054688 L 119.855469 131.054688 C 116.65625 131.054688 114.0625 133.652344 114.0625 136.859375 L 114.0625 190.148438 C 114.0625 193.351562 116.65625 195.949219 119.855469 195.949219 L 168.808594 195.949219 L 187.617188 131.054688"/></g><g clip-path="url(#b)"><path fill="#FFF" d="M 252.09375 133.363281 L 211.574219 151.960938 L 211.574219 143 L 242.894531 129.558594 L 242.894531 129.386719 L 211.574219 115.945312 L 211.574219 106.984375 L 252.09375 125.582031 Z M 206.433594 97.027344 L 187.617188 161.917969 L 255.273438 161.917969 C 258.472656 161.917969 261.066406 159.320312 261.066406 156.117188 L 261.066406 102.828125 C 261.066406 99.625 258.472656 97.027344 255.273438 97.027344 L 206.433594 97.027344"/></g><g fill="#FFF"><g><g><path d="M 6.179688 -10.523438 C 6.179688 -14.53125 9.074219 -16.523438 11.96875 -16.523438 C 14.382812 -16.523438 16.824219 -15.136719 17.515625 -12.332031 L 22.734375 -12.332031 C 22.070312 -17.757812 17.398438 -21.4375 11.96875 -21.4375 C 5.941406 -21.4375 1.054688 -16.734375 1.054688 -10.523438 C 1.054688 -4.3125 5.941406 0.300781 11.96875 0.300781 C 17.457031 0.300781 21.980469 -3.347656 22.761719 -8.863281 L 17.546875 -8.863281 C 16.882812 -6 14.441406 -4.550781 11.96875 -4.550781 C 9.074219 -4.550781 6.179688 -6.542969 6.179688 -10.523438 Z M 6.179688 -10.523438" transform="translate(43.53 237.56)"/></g></g></g><g fill="#FFF"><g><g><path d="M 1.539062 -10.523438 C 1.539062 -4.3125 6.421875 0.300781 12.453125 0.300781 C 18.480469 0.300781 23.394531 -4.402344 23.394531 -10.523438 C 23.394531 -16.734375 18.480469 -21.4375 12.453125 -21.4375 C 6.421875 -21.4375 1.539062 -16.734375 1.539062 -10.523438 Z M 6.664062 -10.523438 C 6.664062 -14.53125 9.558594 -16.492188 12.453125 -16.492188 C 15.347656 -16.492188 18.210938 -14.503906 18.210938 -10.523438 C 18.210938 -6.574219 15.285156 -4.582031 12.390625 -4.582031 C 9.496094 -4.582031 6.664062 -6.542969 6.664062 -10.523438 Z M 6.664062 -10.523438" transform="translate(68.578 237.56)"/></g></g></g><g fill="#FFF"><g><g><path d="M 9.859375 -21.105469 L 1.476562 -21.105469 L 1.476562 0 L 9.859375 0 C 16.824219 0 20.320312 -5.246094 20.320312 -10.523438 C 20.320312 -15.796875 16.824219 -21.105469 9.859375 -21.105469 Z M 9.859375 -4.914062 L 6.601562 -4.914062 L 6.601562 -16.21875 L 9.859375 -16.21875 C 13.417969 -16.21875 15.226562 -13.296875 15.226562 -10.523438 C 15.226562 -7.75 13.417969 -4.914062 9.859375 -4.914062 Z M 9.859375 -4.914062" transform="translate(94.832 237.56)"/></g></g></g><g fill="#FFF"><g><g><path d="M 1.507812 -21.285156 L 1.507812 0 L 15.4375 0 L 15.4375 -4.976562 L 6.691406 -4.976562 L 6.691406 -8.351562 L 15.226562 -8.351562 L 15.226562 -13.355469 L 6.691406 -13.355469 L 6.691406 -16.3125 L 15.40625 -16.3125 L 15.40625 -21.285156 Z M 1.507812 -21.285156" transform="translate(117.377 237.56)"/></g></g></g><g fill="#FFF"><g><g><path d="M 11.96875 -14.441406 L 17.15625 -14.441406 C 17.15625 -19.296875 13.085938 -21.40625 9.316406 -21.40625 C 4.824219 -21.40625 1.023438 -18.632812 1.265625 -13.988281 L 1.265625 -14.019531 C 1.660156 -9.164062 5.699219 -8.410156 9.105469 -8.082031 C 9.890625 -7.988281 12.300781 -7.929688 12.300781 -6.421875 C 12.300781 -5.214844 10.945312 -4.734375 9.257812 -4.734375 C 8.082031 -4.734375 6.332031 -5.125 6.332031 -7.207031 L 1.117188 -7.207031 C 1.117188 -1.839844 5.789062 0.269531 9.226562 0.269531 C 13.234375 0.269531 17.515625 -2.261719 17.515625 -6.664062 C 17.515625 -7.117188 17.457031 -7.65625 17.367188 -8.140625 C 16.460938 -11.9375 12.691406 -12.722656 9.707031 -13.117188 C 9.015625 -13.175781 6.511719 -13.207031 6.511719 -14.773438 C 6.511719 -15.917969 7.628906 -16.613281 9.226562 -16.613281 C 10.824219 -16.613281 11.96875 -15.859375 11.96875 -14.441406 Z M 11.96875 -14.441406" transform="translate(144.415 237.56)"/></g></g></g><g fill="#FFF"><g><g><path d="M 1.539062 -10.523438 C 1.539062 -4.3125 6.421875 0.300781 12.453125 0.300781 C 18.480469 0.300781 23.394531 -4.402344 23.394531 -10.523438 C 23.394531 -16.734375 18.480469 -21.4375 12.453125 -21.4375 C 6.421875 -21.4375 1.539062 -16.734375 1.539062 -10.523438 Z M 6.664062 -10.523438 C 6.664062 -14.53125 9.558594 -16.492188 12.453125 -16.492188 C 15.347656 -16.492188 18.210938 -14.503906 18.210938 -10.523438 C 18.210938 -6.574219 15.285156 -4.582031 12.390625 -4.582031 C 9.496094 -4.582031 6.664062 -6.542969 6.664062 -10.523438 Z M 6.664062 -10.523438" transform="translate(164.61 237.56)"/></g></g></g><g fill="#FFF"><g><g><path d="M 1.507812 -21.105469 L 1.507812 0 L 15.527344 0 L 15.527344 -4.976562 L 6.664062 -4.976562 L 6.664062 -21.105469 Z M 1.507812 -21.105469" transform="translate(190.863 237.56)"/></g></g></g><g fill="#FFF"><g><g><path d="M 9.707031 0.300781 C 13.75 0.300781 17.789062 -2.050781 17.789062 -6.785156 L 17.789062 -21.105469 L 12.632812 -21.105469 L 12.632812 -6.8125 C 12.632812 -5.246094 11.125 -4.460938 9.617188 -4.460938 C 8.140625 -4.460938 6.664062 -5.246094 6.664062 -6.8125 L 6.664062 -21.105469 L 1.507812 -21.105469 L 1.507812 -6.785156 C 1.507812 -1.988281 5.609375 0.300781 9.707031 0.300781 Z M 9.707031 0.300781" transform="translate(208.798 237.56)"/></g></g></g><g fill="#FFF"><g><g><path d="M 17.515625 -21.347656 L 0.996094 -21.347656 L 0.996094 -16.523438 L 6.691406 -16.523438 L 6.691406 0 L 11.847656 0 L 11.847656 -16.523438 L 17.515625 -16.523438 Z M 17.515625 -21.347656" transform="translate(229.415 237.56)"/></g></g></g><g fill="#FFF"><g><g><path d="M 13.445312 0 L 13.445312 -4.613281 L 9.949219 -4.613281 L 9.949219 -16.523438 L 13.445312 -16.523438 L 13.445312 -21.226562 L 1.296875 -21.226562 L 1.296875 -16.523438 L 4.792969 -16.523438 L 4.792969 -4.613281 L 1.296875 -4.613281 L 1.296875 0 Z M 13.445312 0" transform="translate(249.64 237.56)"/></g></g></g><g fill="#FFF"><g><g><path d="M 1.539062 -10.523438 C 1.539062 -4.3125 6.421875 0.300781 12.453125 0.300781 C 18.480469 0.300781 23.394531 -4.402344 23.394531 -10.523438 C 23.394531 -16.734375 18.480469 -21.4375 12.453125 -21.4375 C 6.421875 -21.4375 1.539062 -16.734375 1.539062 -10.523438 Z M 6.664062 -10.523438 C 6.664062 -14.53125 9.558594 -16.492188 12.453125 -16.492188 C 15.347656 -16.492188 18.210938 -14.503906 18.210938 -10.523438 C 18.210938 -6.574219 15.285156 -4.582031 12.390625 -4.582031 C 9.496094 -4.582031 6.664062 -6.542969 6.664062 -10.523438 Z M 6.664062 -10.523438" transform="translate(265.555 237.56)"/></g></g></g><g fill="#FFF"><g><g><path d="M 12.785156 -21.105469 L 12.785156 -10.550781 L 5.488281 -21.105469 L 1.507812 -21.105469 L 1.507812 0 L 6.632812 0 L 6.632812 -10.28125 L 13.839844 0 L 17.878906 0 L 17.878906 -21.105469 Z M 12.785156 -21.105469" transform="translate(291.808 237.56)"/></g></g></g><g fill="#FFF"><g><g><path d="M 11.96875 -14.441406 L 17.15625 -14.441406 C 17.15625 -19.296875 13.085938 -21.40625 9.316406 -21.40625 C 4.824219 -21.40625 1.023438 -18.632812 1.265625 -13.988281 L 1.265625 -14.019531 C 1.660156 -9.164062 5.699219 -8.410156 9.105469 -8.082031 C 9.890625 -7.988281 12.300781 -7.929688 12.300781 -6.421875 C 12.300781 -5.214844 10.945312 -4.734375 9.257812 -4.734375 C 8.082031 -4.734375 6.332031 -5.125 6.332031 -7.207031 L 1.117188 -7.207031 C 1.117188 -1.839844 5.789062 0.269531 9.226562 0.269531 C 13.234375 0.269531 17.515625 -2.261719 17.515625 -6.664062 C 17.515625 -7.117188 17.457031 -7.65625 17.367188 -8.140625 C 16.460938 -11.9375 12.691406 -12.722656 9.707031 -13.117188 C 9.015625 -13.175781 6.511719 -13.207031 6.511719 -14.773438 C 6.511719 -15.917969 7.628906 -16.613281 9.226562 -16.613281 C 10.824219 -16.613281 11.96875 -15.859375 11.96875 -14.441406 Z M 11.96875 -14.441406" transform="translate(312.606 237.56)"/></g></g></g><g fill="#FFF"><g><g><path d="M 0.453125 -4.523438 C 0.453125 -1.914062 2.53125 0.167969 5.144531 0.167969 C 7.753906 0.167969 9.847656 -1.914062 9.847656 -4.523438 C 9.847656 -7.132812 7.753906 -9.226562 5.144531 -9.226562 C 2.53125 -9.226562 0.453125 -7.132812 0.453125 -4.523438 Z M 1.796875 -4.523438 C 1.796875 -6.382812 3.28125 -7.882812 5.144531 -7.882812 C 7.003906 -7.882812 8.503906 -6.382812 8.503906 -4.523438 C 8.503906 -2.660156 7.003906 -1.175781 5.144531 -1.175781 C 3.28125 -1.175781 1.796875 -2.660156 1.796875 -4.523438 Z M 1.796875 -4.523438" transform="translate(75.9 257.255)"/></g></g></g><g fill="#FFF"><g><g><path d="M 1.113281 -9.046875 L 1.113281 0 L 2.417969 0 L 2.417969 -6.320312 L 6.785156 0 L 7.816406 0 L 7.816406 -9.046875 L 6.527344 -9.046875 L 6.527344 -2.675781 L 2.121094 -9.046875 Z M 1.113281 -9.046875" transform="translate(90.612 257.255)"/></g></g></g><g fill="#FFF"><g><g><path d="M 6.667969 -1.304688 L 2.417969 -1.304688 L 2.417969 -9.046875 L 1.113281 -9.046875 L 1.113281 0 L 6.667969 0 Z M 6.667969 -1.304688" transform="translate(103.865 257.255)"/></g></g></g><g fill="#FFF"><g><g><path d="M 4.097656 -7.921875 L 5.777344 -7.921875 L 5.777344 -9.125 L 1.113281 -9.125 L 1.113281 -7.921875 L 2.792969 -7.921875 L 2.792969 -1.214844 L 1.113281 -1.214844 L 1.113281 0 L 5.777344 0 L 5.777344 -1.214844 L 4.097656 -1.214844 Z M 4.097656 -7.921875" transform="translate(114.923 257.255)"/></g></g></g><g fill="#FFF"><g><g><path d="M 1.113281 -9.046875 L 1.113281 0 L 2.417969 0 L 2.417969 -6.320312 L 6.785156 0 L 7.816406 0 L 7.816406 -9.046875 L 6.527344 -9.046875 L 6.527344 -2.675781 L 2.121094 -9.046875 Z M 1.113281 -9.046875" transform="translate(126.123 257.255)"/></g></g></g><g fill="#FFF"><g><g><path d="M 6.628906 -1.304688 L 2.429688 -1.304688 L 2.429688 -3.96875 L 6.527344 -3.96875 L 6.527344 -5.285156 L 2.429688 -5.285156 L 2.429688 -7.832031 L 6.617188 -7.832031 L 6.617188 -9.136719 L 1.113281 -9.136719 L 1.113281 0 L 6.628906 0 Z M 6.628906 -1.304688" transform="translate(139.377 257.255)"/></g></g></g><g fill="#FFF"><g><g><path d="M 4.417969 -9.046875 L 1.113281 -9.046875 L 1.113281 0 L 2.429688 0 L 2.429688 -3.011719 L 4.417969 -3.011719 C 6.371094 -3.011719 7.351562 -4.511719 7.351562 -6.023438 C 7.351562 -7.535156 6.371094 -9.046875 4.417969 -9.046875 Z M 4.417969 -4.304688 L 2.429688 -4.304688 L 2.429688 -7.726562 L 4.417969 -7.726562 C 5.519531 -7.726562 6.0625 -6.875 6.0625 -6.007812 C 6.0625 -5.15625 5.519531 -4.304688 4.417969 -4.304688 Z M 4.417969 -4.304688" transform="translate(158.458 257.255)"/></g></g></g><g fill="#FFF"><g><g><path d="M 4.40625 -4.585938 L 2.882812 -4.585938 L 2.882812 -3.96875 L 6.175781 0 L 7.871094 0 L 5.015625 -3.398438 C 6.566406 -3.671875 7.351562 -4.882812 7.351562 -6.164062 C 7.351562 -7.597656 6.371094 -9.160156 4.40625 -9.160156 L 1.113281 -9.160156 L 1.113281 0 L 2.402344 0 L 2.402344 -7.84375 L 4.40625 -7.84375 C 5.503906 -7.84375 6.046875 -6.9375 6.046875 -6.164062 C 6.046875 -5.375 5.503906 -4.585938 4.40625 -4.585938 Z M 4.40625 -4.585938" transform="translate(170.458 257.255)"/></g></g></g><g fill="#FFF"><g><g><path d="M 6.628906 -1.304688 L 2.429688 -1.304688 L 2.429688 -3.96875 L 6.527344 -3.96875 L 6.527344 -5.285156 L 2.429688 -5.285156 L 2.429688 -7.832031 L 6.617188 -7.832031 L 6.617188 -9.136719 L 1.113281 -9.136719 L 1.113281 0 L 6.628906 0 Z M 6.628906 -1.304688" transform="translate(182.485 257.255)"/></g></g></g><g fill="#FFF"><g><g><path d="M 5.632812 -6.707031 L 6.925781 -6.757812 C 6.695312 -8.414062 5.246094 -9.136719 3.851562 -9.136719 C 2.804688 -9.136719 1.71875 -8.722656 1.113281 -7.933594 C 0.773438 -7.496094 0.605469 -6.976562 0.605469 -6.433594 C 0.605469 -6.371094 0.621094 -6.292969 0.621094 -6.214844 L 0.621094 -6.230469 C 0.761719 -4.34375 2.417969 -4.03125 3.824219 -3.890625 C 4.730469 -3.800781 5.660156 -3.683594 5.816406 -2.996094 C 5.839844 -2.882812 5.855469 -2.777344 5.855469 -2.6875 C 5.855469 -1.757812 4.792969 -1.214844 3.824219 -1.214844 C 2.984375 -1.214844 1.964844 -1.652344 1.875 -2.492188 L 1.875 -2.441406 L 1.859375 -2.636719 L 0.542969 -2.609375 L 0.554688 -2.363281 C 0.722656 -0.75 2.417969 0.078125 3.8125 0.078125 C 5.441406 0.078125 7.171875 -0.929688 7.171875 -2.675781 C 7.171875 -2.855469 7.144531 -3.074219 7.105469 -3.269531 C 6.757812 -4.714844 5.21875 -5.039062 3.980469 -5.195312 C 2.972656 -5.285156 1.925781 -5.414062 1.925781 -6.460938 C 1.925781 -6.71875 1.988281 -6.976562 2.144531 -7.171875 C 2.519531 -7.648438 3.203125 -7.855469 3.824219 -7.855469 C 4.601562 -7.855469 5.453125 -7.507812 5.632812 -6.707031 Z M 5.632812 -6.707031" transform="translate(194.02 257.255)"/></g></g></g><g fill="#FFF"><g><g><path d="M 6.628906 -1.304688 L 2.429688 -1.304688 L 2.429688 -3.96875 L 6.527344 -3.96875 L 6.527344 -5.285156 L 2.429688 -5.285156 L 2.429688 -7.832031 L 6.617188 -7.832031 L 6.617188 -9.136719 L 1.113281 -9.136719 L 1.113281 0 L 6.628906 0 Z M 6.628906 -1.304688" transform="translate(206.034 257.255)"/></g></g></g><g fill="#FFF"><g><g><path d="M 1.113281 -9.046875 L 1.113281 0 L 2.417969 0 L 2.417969 -6.320312 L 6.785156 0 L 7.816406 0 L 7.816406 -9.046875 L 6.527344 -9.046875 L 6.527344 -2.675781 L 2.121094 -9.046875 Z M 1.113281 -9.046875" transform="translate(217.57 257.255)"/></g></g></g><g fill="#FFF"><g><g><path d="M 0.503906 -4.496094 C 0.503906 -3.242188 1.046875 -2.09375 1.820312 -1.265625 C 2.609375 -0.4375 3.746094 0.0664062 4.976562 0.0664062 C 7.082031 0.0664062 8.734375 -1.332031 9.253906 -3.386719 L 7.972656 -3.386719 C 7.507812 -2.015625 6.34375 -1.226562 4.976562 -1.226562 C 4.109375 -1.226562 3.242188 -1.589844 2.675781 -2.183594 C 2.105469 -2.777344 1.769531 -3.59375 1.769531 -4.496094 C 1.769531 -5.425781 2.121094 -6.230469 2.6875 -6.824219 C 3.257812 -7.417969 4.109375 -7.832031 4.976562 -7.832031 C 6.304688 -7.832031 7.417969 -7.105469 7.894531 -5.75 L 9.1875 -5.75 C 8.671875 -7.792969 7.042969 -9.125 4.976562 -9.125 C 3.746094 -9.125 2.570312 -8.554688 1.785156 -7.742188 C 1.007812 -6.914062 0.503906 -5.777344 0.503906 -4.496094 Z M 0.503906 -4.496094" transform="translate(230.824 257.255)"/></g></g></g><g fill="#FFF"><g><g><path d="M 6.628906 -1.304688 L 2.429688 -1.304688 L 2.429688 -3.96875 L 6.527344 -3.96875 L 6.527344 -5.285156 L 2.429688 -5.285156 L 2.429688 -7.832031 L 6.617188 -7.832031 L 6.617188 -9.136719 L 1.113281 -9.136719 L 1.113281 0 L 6.628906 0 Z M 6.628906 -1.304688" transform="translate(244.89 257.255)"/></g></g></g><g fill="#FFF"><g><g><path d="M 2.234375 -2.289062 L 5.90625 -2.289062 L 6.769531 0 L 8.167969 0 L 4.535156 -9.160156 L 3.578125 -9.160156 L -0.0507812 0 L 1.355469 0 Z M 5.425781 -3.515625 L 2.714844 -3.515625 L 4.070312 -7.082031 Z M 5.425781 -3.515625" transform="translate(263.972 257.255)"/></g></g></g><g fill="#FFF"><g><g><path d="M 1.113281 -9.046875 L 1.113281 0 L 2.417969 0 L 2.417969 -6.320312 L 6.785156 0 L 7.816406 0 L 7.816406 -9.046875 L 6.527344 -9.046875 L 6.527344 -2.675781 L 2.121094 -9.046875 Z M 1.113281 -9.046875" transform="translate(276.489 257.255)"/></g></g></g><g fill="#FFF"><g><g><path d="M 4.355469 -9.125 L 1.113281 -9.125 L 1.113281 0 L 4.355469 0 C 7.3125 0 8.800781 -2.25 8.800781 -4.511719 C 8.800781 -6.769531 7.3125 -9.125 4.355469 -9.125 Z M 4.355469 -1.304688 L 2.417969 -1.304688 L 2.417969 -7.816406 L 4.355469 -7.816406 C 6.449219 -7.816406 7.507812 -6.113281 7.507812 -4.511719 C 7.507812 -2.90625 6.449219 -1.304688 4.355469 -1.304688 Z M 4.355469 -1.304688" transform="translate(289.742 257.255)"/></g></g></g><g fill="#FFF"><g><g><path d="M 4.097656 -7.921875 L 5.777344 -7.921875 L 5.777344 -9.125 L 1.113281 -9.125 L 1.113281 -7.921875 L 2.792969 -7.921875 L 2.792969 -1.214844 L 1.113281 -1.214844 L 1.113281 0 L 5.777344 0 L 5.777344 -1.214844 L 4.097656 -1.214844 Z M 4.097656 -7.921875" transform="translate(115.509 275.255)"/></g></g></g><g fill="#FFF"><g><g><path d="M 1.113281 -9.046875 L 1.113281 0 L 2.417969 0 L 2.417969 -6.320312 L 6.785156 0 L 7.816406 0 L 7.816406 -9.046875 L 6.527344 -9.046875 L 6.527344 -2.675781 L 2.121094 -9.046875 Z M 1.113281 -9.046875" transform="translate(126.709 275.255)"/></g></g></g><g fill="#FFF"><g><g><path d="M 2.816406 -7.894531 L 2.816406 0 L 4.121094 0 L 4.121094 -7.894531 L 6.847656 -7.894531 L 6.847656 -9.136719 L 0.078125 -9.136719 L 0.078125 -7.894531 Z M 2.816406 -7.894531" transform="translate(139.962 275.255)"/></g></g></g><g fill="#FFF"><g><g><path d="M 6.628906 -1.304688 L 2.429688 -1.304688 L 2.429688 -3.96875 L 6.527344 -3.96875 L 6.527344 -5.285156 L 2.429688 -5.285156 L 2.429688 -7.832031 L 6.617188 -7.832031 L 6.617188 -9.136719 L 1.113281 -9.136719 L 1.113281 0 L 6.628906 0 Z M 6.628906 -1.304688" transform="translate(151.227 275.255)"/></g></g></g><g fill="#FFF"><g><g><path d="M 4.40625 -4.585938 L 2.882812 -4.585938 L 2.882812 -3.96875 L 6.175781 0 L 7.871094 0 L 5.015625 -3.398438 C 6.566406 -3.671875 7.351562 -4.882812 7.351562 -6.164062 C 7.351562 -7.597656 6.371094 -9.160156 4.40625 -9.160156 L 1.113281 -9.160156 L 1.113281 0 L 2.402344 0 L 2.402344 -7.84375 L 4.40625 -7.84375 C 5.503906 -7.84375 6.046875 -6.9375 6.046875 -6.164062 C 6.046875 -5.375 5.503906 -4.585938 4.40625 -4.585938 Z M 4.40625 -4.585938" transform="translate(162.762 275.255)"/></g></g></g><g fill="#FFF"><g><g><path d="M 2.234375 -2.289062 L 5.90625 -2.289062 L 6.769531 0 L 8.167969 0 L 4.535156 -9.160156 L 3.578125 -9.160156 L -0.0507812 0 L 1.355469 0 Z M 5.425781 -3.515625 L 2.714844 -3.515625 L 4.070312 -7.082031 Z M 5.425781 -3.515625" transform="translate(174.789 275.255)"/></g></g></g><g fill="#FFF"><g><g><path d="M 0.503906 -4.496094 C 0.503906 -3.242188 1.046875 -2.09375 1.820312 -1.265625 C 2.609375 -0.4375 3.746094 0.0664062 4.976562 0.0664062 C 7.082031 0.0664062 8.734375 -1.332031 9.253906 -3.386719 L 7.972656 -3.386719 C 7.507812 -2.015625 6.34375 -1.226562 4.976562 -1.226562 C 4.109375 -1.226562 3.242188 -1.589844 2.675781 -2.183594 C 2.105469 -2.777344 1.769531 -3.59375 1.769531 -4.496094 C 1.769531 -5.425781 2.121094 -6.230469 2.6875 -6.824219 C 3.257812 -7.417969 4.109375 -7.832031 4.976562 -7.832031 C 6.304688 -7.832031 7.417969 -7.105469 7.894531 -5.75 L 9.1875 -5.75 C 8.671875 -7.792969 7.042969 -9.125 4.976562 -9.125 C 3.746094 -9.125 2.570312 -8.554688 1.785156 -7.742188 C 1.007812 -6.914062 0.503906 -5.777344 0.503906 -4.496094 Z M 0.503906 -4.496094" transform="translate(187.306 275.255)"/></g></g></g><g fill="#FFF"><g><g><path d="M 2.816406 -7.894531 L 2.816406 0 L 4.121094 0 L 4.121094 -7.894531 L 6.847656 -7.894531 L 6.847656 -9.136719 L 0.078125 -9.136719 L 0.078125 -7.894531 Z M 2.816406 -7.894531" transform="translate(201.373 275.255)"/></g></g></g><g fill="#FFF"><g><g><path d="M 4.097656 -7.921875 L 5.777344 -7.921875 L 5.777344 -9.125 L 1.113281 -9.125 L 1.113281 -7.921875 L 2.792969 -7.921875 L 2.792969 -1.214844 L 1.113281 -1.214844 L 1.113281 0 L 5.777344 0 L 5.777344 -1.214844 L 4.097656 -1.214844 Z M 4.097656 -7.921875" transform="translate(212.638 275.255)"/></g></g></g><g fill="#FFF"><g><g><path d="M 0.453125 -4.523438 C 0.453125 -1.914062 2.53125 0.167969 5.144531 0.167969 C 7.753906 0.167969 9.847656 -1.914062 9.847656 -4.523438 C 9.847656 -7.132812 7.753906 -9.226562 5.144531 -9.226562 C 2.53125 -9.226562 0.453125 -7.132812 0.453125 -4.523438 Z M 1.796875 -4.523438 C 1.796875 -6.382812 3.28125 -7.882812 5.144531 -7.882812 C 7.003906 -7.882812 8.503906 -6.382812 8.503906 -4.523438 C 8.503906 -2.660156 7.003906 -1.175781 5.144531 -1.175781 C 3.28125 -1.175781 1.796875 -2.660156 1.796875 -4.523438 Z M 1.796875 -4.523438" transform="translate(223.838 275.255)"/></g></g></g><g fill="#FFF"><g><g><path d="M 1.113281 -9.046875 L 1.113281 0 L 2.417969 0 L 2.417969 -6.320312 L 6.785156 0 L 7.816406 0 L 7.816406 -9.046875 L 6.527344 -9.046875 L 6.527344 -2.675781 L 2.121094 -9.046875 Z M 1.113281 -9.046875" transform="translate(238.55 275.255)"/></g></g></g><g fill="#FFF"><g><g><path d="M 5.632812 -6.707031 L 6.925781 -6.757812 C 6.695312 -8.414062 5.246094 -9.136719 3.851562 -9.136719 C 2.804688 -9.136719 1.71875 -8.722656 1.113281 -7.933594 C 0.773438 -7.496094 0.605469 -6.976562 0.605469 -6.433594 C 0.605469 -6.371094 0.621094 -6.292969 0.621094 -6.214844 L 0.621094 -6.230469 C 0.761719 -4.34375 2.417969 -4.03125 3.824219 -3.890625 C 4.730469 -3.800781 5.660156 -3.683594 5.816406 -2.996094 C 5.839844 -2.882812 5.855469 -2.777344 5.855469 -2.6875 C 5.855469 -1.757812 4.792969 -1.214844 3.824219 -1.214844 C 2.984375 -1.214844 1.964844 -1.652344 1.875 -2.492188 L 1.875 -2.441406 L 1.859375 -2.636719 L 0.542969 -2.609375 L 0.554688 -2.363281 C 0.722656 -0.75 2.417969 0.078125 3.8125 0.078125 C 5.441406 0.078125 7.171875 -0.929688 7.171875 -2.675781 C 7.171875 -2.855469 7.144531 -3.074219 7.105469 -3.269531 C 6.757812 -4.714844 5.21875 -5.039062 3.980469 -5.195312 C 2.972656 -5.285156 1.925781 -5.414062 1.925781 -6.460938 C 1.925781 -6.71875 1.988281 -6.976562 2.144531 -7.171875 C 2.519531 -7.648438 3.203125 -7.855469 3.824219 -7.855469 C 4.601562 -7.855469 5.453125 -7.507812 5.632812 -6.707031 Z M 5.632812 -6.707031" transform="translate(251.804 275.255)"/></g></g></g></svg>