<?xml version="1.0" standalone="no"?>
<!DOCTYPE svg PUBLIC "-//W3C//DTD SVG 20010904//EN"
 "http://www.w3.org/TR/2001/REC-SVG-20010904/DTD/svg10.dtd">
<svg version="1.0" xmlns="http://www.w3.org/2000/svg"
 width="648.000000pt" height="385.000000pt" viewBox="0 0 648.000000 385.000000"
 preserveAspectRatio="xMidYMid meet">

<g transform="translate(0.000000,385.000000) scale(0.100000,-0.100000)"
fill="#000000" stroke="none">
<path d="M1832 3763 c-5 -10 -28 -79 -52 -153 -51 -164 -146 -423 -275 -750
-53 -135 -138 -354 -188 -487 -51 -134 -95 -243 -98 -243 -3 0 -25 27 -48 59
-85 122 -202 182 -313 161 -137 -26 -256 -189 -318 -435 -39 -155 -53 -303
-48 -501 7 -242 39 -334 161 -461 l60 -63 -36 -72 c-50 -101 -152 -254 -204
-305 -37 -37 -48 -43 -86 -43 -54 0 -136 40 -176 86 -61 69 -95 159 -106 281
-4 40 -11 73 -17 73 -18 0 -38 -70 -38 -132 0 -124 43 -224 127 -298 70 -62
117 -82 198 -88 65 -4 73 -2 113 25 60 41 149 164 230 316 57 109 70 127 87
122 195 -51 369 -14 539 115 66 49 76 49 76 0 0 -11 9 -24 20 -30 30 -16 56
16 64 81 12 90 25 125 65 174 21 25 71 110 112 188 l74 142 7 -74 c13 -127 64
-280 123 -369 56 -84 154 -105 217 -45 51 47 165 323 233 563 15 52 31 99 35
103 4 5 10 -31 14 -80 10 -129 43 -279 76 -348 38 -78 109 -151 155 -159 45
-9 96 15 136 63 39 47 127 227 176 361 l38 104 7 -89 c13 -181 68 -342 143
-417 108 -108 251 -97 387 30 49 45 50 46 81 32 47 -21 134 -17 183 7 101 53
190 152 265 296 38 73 43 79 49 57 49 -181 251 -294 381 -212 107 68 249 268
381 537 l89 180 -6 -65 c-29 -335 -7 -476 91 -578 l44 -46 -32 -33 c-28 -29
-59 -42 -208 -89 -582 -183 -825 -267 -1230 -429 -129 -51 -278 -110 -330
-130 -118 -46 -452 -196 -625 -280 -217 -106 -273 -152 -263 -217 3 -21 9 -23
62 -26 46 -2 89 6 200 39 292 86 495 157 1076 374 157 59 326 122 375 140 222
81 522 226 683 331 48 31 89 59 92 63 9 11 114 88 135 99 11 5 139 47 285 92
576 179 669 205 838 235 l92 16 23 -27 c21 -24 28 -26 65 -19 62 10 107 44
107 80 0 59 -70 68 -269 35 -159 -27 -302 -64 -581 -150 -396 -123 -415 -128
-415 -119 0 5 17 17 38 28 59 31 127 109 171 198 48 97 51 120 16 129 -33 8
-51 -8 -123 -111 -109 -154 -128 -167 -174 -117 -77 82 -90 187 -67 517 13
180 8 210 -38 221 -22 6 -31 2 -55 -26 -15 -19 -33 -50 -39 -69 -22 -69 -194
-396 -257 -490 -150 -223 -215 -269 -316 -227 -52 22 -102 72 -127 128 -23 50
-24 64 -24 258 0 113 -4 211 -8 218 -13 20 -47 14 -57 -10 -5 -13 -14 -70 -20
-126 -11 -117 -41 -213 -106 -351 -36 -77 -57 -107 -117 -165 -76 -75 -127
-106 -174 -106 -57 0 -56 8 25 171 42 85 91 195 107 244 28 83 30 101 30 230
0 124 -2 145 -21 180 -32 58 -57 77 -111 82 -42 4 -54 1 -98 -29 -120 -80
-174 -271 -175 -613 0 -128 1 -131 34 -197 l34 -67 -22 -24 c-25 -27 -120 -83
-158 -92 -72 -18 -153 43 -196 148 -49 116 -60 180 -71 389 -11 216 -20 253
-61 253 -29 0 -29 -1 -85 -213 -63 -242 -181 -496 -239 -517 -43 -15 -76 10
-115 89 -44 90 -68 213 -81 410 -15 234 -19 265 -41 287 -39 39 -60 16 -88
-98 -45 -183 -105 -381 -157 -522 -86 -232 -100 -260 -136 -280 -23 -13 -28
-13 -51 2 -31 20 -101 158 -122 242 -36 139 -41 375 -13 603 10 81 10 95 -4
108 -18 18 -53 12 -61 -10 -3 -8 -15 -71 -27 -140 -12 -70 -34 -174 -50 -230
-30 -107 -150 -371 -158 -348 -6 18 8 109 93 622 130 788 173 1068 205 1340 6
52 22 166 36 252 14 86 24 176 22 200 -3 40 -5 43 -35 46 -23 2 -34 -2 -41
-15z m-87 -665 c-14 -106 -34 -247 -45 -313 -18 -118 -60 -387 -101 -655 -12
-74 -38 -227 -59 -340 -21 -113 -44 -248 -50 -300 -12 -93 -29 -151 -30 -103
0 12 -12 79 -26 149 -25 123 -78 292 -135 424 l-27 64 28 76 c180 486 461
1203 467 1196 3 -2 -7 -91 -22 -198z m-769 -843 c53 -22 147 -117 178 -180
l27 -56 -32 -87 c-38 -104 -255 -631 -294 -717 -16 -33 -45 -98 -66 -145 -21
-46 -42 -86 -47 -88 -16 -5 -91 93 -122 159 -37 81 -50 162 -50 319 0 240 39
460 109 615 73 161 183 228 297 180z m2755 -207 c10 -23 14 -73 13 -158 0
-112 -3 -133 -28 -200 -38 -100 -138 -309 -163 -339 l-19 -24 -20 39 c-17 35
-19 60 -18 224 1 201 13 277 60 380 30 65 58 98 99 115 37 16 58 6 76 -37z
m-2437 -306 c53 -161 80 -287 100 -472 17 -156 22 -143 -87 -227 -134 -104
-267 -146 -399 -125 -39 6 -74 14 -78 19 -4 4 30 94 77 198 75 168 177 415
284 688 28 73 36 85 46 72 6 -9 32 -78 57 -153z m3526 -576 c0 -2 -48 -35
-107 -74 -126 -82 -458 -250 -623 -316 -188 -74 -648 -242 -910 -332 -232 -79
-660 -198 -660 -184 0 29 736 354 1235 546 179 68 1036 364 1057 364 4 0 8 -2
8 -4z"/>
</g>
</svg>
